<?xml version="1.0" standalone="no"?><!DOCTYPE svg PUBLIC "-//W3C//DTD SVG 1.1//EN" "http://www.w3.org/Graphics/SVG/1.1/DTD/svg11.dtd"><svg t="1584185568327" class="icon" viewBox="0 0 1024 1024" version="1.1" xmlns="http://www.w3.org/2000/svg" p-id="44922" xmlns:xlink="http://www.w3.org/1999/xlink" width="200" height="200"><defs><style type="text/css"></style></defs><path d="M986.627737 994.10219c-14.948905 14.948905-59.79562 37.372263-82.218978 14.948905L642.80292 747.445255C455.941606 874.510949 201.810219 829.664234 74.744526 642.80292S-7.474453 201.810219 179.386861 74.744526 620.379562-7.474453 747.445255 179.386861c97.167883 142.014599 97.167883 321.40146 0 463.416059l261.60584 261.605839c22.423358 29.89781-7.474453 74.744526-22.423358 89.693431zM411.094891 149.489051C269.080292 149.489051 149.489051 269.080292 149.489051 411.094891S261.605839 672.70073 411.094891 672.70073c52.321168 0 104.642336-14.948905 149.489051-44.846715 44.846715-37.372263 37.372263-29.89781 67.270073-67.270073 82.218978-119.591241 52.321168-284.029197-67.270073-366.248176-44.846715-29.89781-97.167883-44.846715-149.489051-44.846715z" fill="#D0D0D0" p-id="44923"></path></svg>